<svg version="1.1" viewBox="0.0 0.0 960.0 720.0" fill="none" stroke="none" stroke-linecap="square" stroke-miterlimit="10" xmlns:xlink="http://www.w3.org/1999/xlink" xmlns="http://www.w3.org/2000/svg"><clipPath id="p.0"><path d="m0 0l960.0 0l0 720.0l-960.0 0l0 -720.0z" clip-rule="nonzero"/></clipPath><g clip-path="url(#p.0)"><path fill="#000000" fill-opacity="0.0" d="m0 0l960.0 0l0 720.0l-960.0 0z" fill-rule="evenodd"/><path fill="#000000" fill-opacity="0.0" d="m50.188976 280.0c72.0643 -36.836395 288.73975 -221.01837 432.38583 -221.01837c143.64609 0 357.90903 184.18198 429.4908 221.01837" fill-rule="evenodd"/><path stroke="#000000" stroke-width="8.0" stroke-linejoin="round" stroke-linecap="butt" d="m50.188976 280.0c72.0643 -36.836395 288.73975 -221.01837 432.38583 -221.01837c143.64609 0 357.90903 184.18198 429.4908 221.01837" fill-rule="evenodd"/><path fill="#000000" fill-opacity="0.0" d="m47.29134 279.03412c72.22528 36.997375 289.38364 221.82327 433.35168 221.98425c143.96805 0.16098022 358.7139 -184.18198 430.4567 -221.01837" fill-rule="evenodd"/><path stroke="#000000" stroke-width="8.0" stroke-linejoin="round" stroke-linecap="butt" d="m47.29134 279.03412c72.22528 36.997375 289.38364 221.82327 433.35168 221.98425c143.96805 0.16098022 358.7139 -184.18198 430.4567 -221.01837" fill-rule="evenodd"/><path fill="#0590fd" fill-opacity="0.8305" d="m294.8596 280.0l0 0c0 -99.14163 83.3949 -179.51181 186.2677 -179.51181l0 0c49.401276 0 96.779205 18.912796 131.71115 52.57779c34.932007 33.664993 54.55658 79.324524 54.55658 126.93402l0 0c0 99.14163 -83.3949 179.51181 -186.26773 179.51181l0 0c-102.8728 0 -186.2677 -80.37018 -186.2677 -179.51181zm113.70276 0c0 36.345337 32.488434 65.80902 72.56494 65.80902c40.076508 0 72.56497 -29.463684 72.56497 -65.80902c0 -36.34532 -32.488464 -65.80904 -72.56497 -65.80904l0 0c-40.076508 0 -72.56494 29.463715 -72.56494 65.80904z" fill-rule="evenodd"/><path fill="#000000" fill-opacity="0.0" d="m430.2838 227.41148l51.052795 -19.580338l53.3067 23.747574l19.577515 51.045364l-22.256958 49.941223l-51.052795 19.580353l-53.306763 -23.74759l-19.577484 -51.04535z" fill-rule="evenodd"/><path stroke="#000000" stroke-width="8.0" stroke-linejoin="round" stroke-linecap="butt" d="m430.2838 227.41148l51.052795 -19.580338l53.3067 23.747574l19.577515 51.045364l-22.256958 49.941223l-51.052795 19.580353l-53.306763 -23.74759l-19.577484 -51.04535z" fill-rule="evenodd"/><path fill="#000000" fill-opacity="0.0" d="m534.6433 231.57872l-53.51178 -131.08661" fill-rule="evenodd"/><path stroke="#000000" stroke-width="4.0" stroke-linejoin="round" stroke-linecap="butt" d="m534.6433 231.57872l-53.51178 -131.08661" fill-rule="evenodd"/><path fill="#000000" fill-opacity="0.0" d="m480.91107 352.14566l131.93701 54.80313" fill-rule="evenodd"/><path stroke="#000000" stroke-width="4.0" stroke-linejoin="round" stroke-linecap="butt" d="m480.91107 352.14566l131.93701 54.80313" fill-rule="evenodd"/><path fill="#000000" fill-opacity="0.0" d="m427.6043 328.39807l53.51181 131.1181" fill-rule="evenodd"/><path stroke="#000000" stroke-width="4.0" stroke-linejoin="round" stroke-linecap="butt" d="m427.6043 328.39807l53.51181 131.1181" fill-rule="evenodd"/><path fill="#000000" fill-opacity="0.0" d="m408.02682 277.35272l-58.614166 129.5748" fill-rule="evenodd"/><path stroke="#000000" stroke-width="4.0" stroke-linejoin="round" stroke-linecap="butt" d="m408.02682 277.35272l-58.614166 129.5748" fill-rule="evenodd"/><path fill="#000000" fill-opacity="0.0" d="m430.2838 227.41148l-135.43307 52.598434" fill-rule="evenodd"/><path stroke="#000000" stroke-width="4.0" stroke-linejoin="round" stroke-linecap="butt" d="m430.2838 227.41148l-135.43307 52.598434" fill-rule="evenodd"/><path fill="#000000" fill-opacity="0.0" d="m349.41614 153.06598l131.90552 54.771652" fill-rule="evenodd"/><path stroke="#000000" stroke-width="4.0" stroke-linejoin="round" stroke-linecap="butt" d="m349.41614 153.06598l131.90552 54.771652" fill-rule="evenodd"/><path fill="#000000" fill-opacity="0.0" d="m612.83844 153.06598l-58.614136 129.5433" fill-rule="evenodd"/><path stroke="#000000" stroke-width="4.0" stroke-linejoin="round" stroke-linecap="butt" d="m612.83844 153.06598l-58.614136 129.5433" fill-rule="evenodd"/><path fill="#000000" fill-opacity="0.0" d="m531.96387 332.5653l135.43304 -52.566925" fill-rule="evenodd"/><path stroke="#000000" stroke-width="4.0" stroke-linejoin="round" stroke-linecap="butt" d="m531.96387 332.5653l135.43304 -52.566925" fill-rule="evenodd"/><path fill="#000000" fill-opacity="0.0" d="m307.23883 531.0315l347.77954 0l0 152.75592l-347.77954 0z" fill-rule="evenodd"/><path fill="#000000" d="m334.4107 662.9115q-5.25 0 -8.0 -2.296875q-2.75 -2.3125 -2.875 -4.609375l-0.125 -2.1875l0 -54.90625l8.953125 0l0 54.90625q0 3.71875 1.46875 5.703125q1.484375 1.984375 2.890625 2.109375l1.53125 0.25l3.96875 0l0 1.03125l-7.8125 0zm-10.234375 -78.328125q-1.53125 -1.546875 -1.53125 -3.84375q0 -2.3125 1.53125 -3.90625q1.53125 -1.609375 3.828125 -1.609375q2.3125 0 3.90625 1.609375q1.609375 1.59375 1.609375 3.90625q0 2.296875 -1.609375 3.84375q-1.59375 1.53125 -3.90625 1.53125q-2.296875 0 -3.828125 -1.53125zm52.729004 19.828125l0 -2.6875q-5.75 2.3125 -10.484375 9.296875q-4.734375 6.96875 -5.0 13.109375l0 38.78125l-8.953125 0l0 -64.0l8.953125 0l0 20.359375q2.046875 -7.4375 7.796875 -14.015625q5.765625 -6.59375 13.0625 -6.859375l0.515625 0q2.5625 0 4.28125 1.734375q1.734375 1.71875 1.734375 4.28125q0 2.5625 -1.734375 4.234375q-1.71875 1.65625 -4.28125 1.65625q-2.5625 0 -4.234375 -1.65625q-1.65625 -1.671875 -1.65625 -4.234375zm34.5614 58.5q-5.25 0 -8.0 -2.296875q-2.75 -2.3125 -2.875 -4.609375l-0.125 -2.1875l0 -54.90625l8.953125 0l0 54.90625q0 3.71875 1.46875 5.703125q1.484375 1.984375 2.890625 2.109375l1.53125 0.25l3.96875 0l0 1.03125l-7.8125 0zm-10.234375 -78.328125q-1.53125 -1.546875 -1.53125 -3.84375q0 -2.3125 1.53125 -3.90625q1.53125 -1.609375 3.828125 -1.609375q2.3125 0 3.90625 1.609375q1.609375 1.59375 1.609375 3.90625q0 2.296875 -1.609375 3.84375q-1.59375 1.53125 -3.90625 1.53125q-2.296875 0 -3.828125 -1.53125zm65.666504 18.8125q-2.046875 -1.671875 -6.59375 -2.8125q-4.546875 -1.15625 -6.859375 -1.15625q-2.296875 0 -2.671875 0q-6.921875 0.125 -10.0 3.515625q-3.0625 3.390625 -3.0625 7.625q0 4.21875 2.6875 7.09375q2.6875 2.875 6.71875 4.484375q4.03125 1.59375 8.703125 3.640625q4.671875 2.046875 8.703125 4.171875q4.03125 2.109375 6.71875 6.140625q2.6875 4.03125 2.6875 10.046875q0 6.015625 -4.21875 10.25q-4.21875 4.21875 -9.40625 5.625q-5.1875 1.40625 -11.203125 1.40625q-13.0625 0 -19.578125 -5.765625l0.765625 -0.765625q2.5625 2.4375 7.609375 3.96875q5.0625 1.53125 9.796875 1.53125q7.546875 0 12.46875 -4.15625q4.9375 -4.15625 4.9375 -10.359375q0 -6.21875 -3.71875 -9.984375q-3.703125 -3.78125 -9.015625 -5.890625q-5.3125 -2.125 -10.6875 -4.234375q-5.375 -2.109375 -9.09375 -5.875q-3.703125 -3.78125 -3.703125 -8.765625q0 -5.0 2.296875 -8.140625q2.3125 -3.140625 6.140625 -4.421875q6.53125 -2.171875 13.0625 -2.171875q11.0 0 17.15625 4.09375l-0.640625 0.90625z" fill-rule="nonzero"/><path fill="#0590fd" d="m483.53986 561.724l14.265625 0l-2.65625 50.40625q-0.09375 -7.4375 6.421875 -13.234375q6.515625 -5.8125 14.953125 -5.8125q28.640625 0 28.640625 33.125q0 37.21875 -36.1875 37.21875q-10.1875 0 -25.4375 -3.78125l0 -97.921875zm32.859375 37.703125q-6.78125 0 -12.484375 6.09375q-5.6875 6.09375 -6.109375 10.578125l0 38.859375q5.640625 2.125 11.046875 2.125q22.046875 0 22.046875 -31.0q0 -26.65625 -14.5 -26.65625zm52.606873 63.484375q-12.90625 0 -16.578125 -7.359375q-0.921875 -1.84375 -0.921875 -3.484375l0 -90.34375l14.265625 0l0 89.4375q0 2.84375 0.84375 4.0q0.859375 1.140625 1.328125 1.171875l1.296875 0.234375l6.390625 0l0 6.34375l-6.625 0zm25.18341 -17.375q0 8.5 3.921875 10.5625q1.984375 0.984375 5.328125 0.984375q6.984375 0 12.578125 -5.421875q5.609375 -5.4375 6.015625 -9.578125l0 -48.484375l14.265625 0l0 57.5625q0 2.84375 0.84375 4.0q0.859375 1.140625 1.328125 1.171875l1.296875 0.234375l6.390625 0l0 6.34375l-10.46875 0q-6.21875 0 -9.78125 -2.984375q-3.5625 -2.984375 -3.75 -6.4375l-0.125 -2.25l1.546875 -0.078125q0.984375 1.640625 -5.515625 6.953125q-6.5 5.3125 -14.15625 5.3125q-7.640625 0 -12.640625 -1.515625q-5.0 -1.53125 -7.421875 -4.59375q-3.921875 -4.671875 -3.921875 -11.90625l0 -51.8125l14.265625 0l0 51.9375z" fill-rule="nonzero"/></g></svg>