<svg version="1.1" viewBox="0.0 0.0 336.254593175853 242.93963254593177" fill="none" stroke="none" stroke-linecap="square" stroke-miterlimit="10" xmlns:xlink="http://www.w3.org/1999/xlink" xmlns="http://www.w3.org/2000/svg"><clipPath id="p.0"><path d="m0 0l336.2546 0l0 242.93964l-336.2546 0l0 -242.93964z" clip-rule="nonzero"/></clipPath><g clip-path="url(#p.0)"><path fill="#000000" fill-opacity="0.0" d="m0 0l336.2546 0l0 242.93964l-336.2546 0z" fill-rule="evenodd"/><path fill="#000000" fill-opacity="0.0" d="m64.191605 153.52231l211.30708 0l0 76.566925l-211.30708 0z" fill-rule="evenodd"/><path fill="#000000" d="m97.46704 223.96231q-2.625 0 -4.0 -1.140625q-1.375 -1.15625 -1.453125 -2.3125l-0.0625 -1.09375l0 -27.453125l4.484375 0l0 27.453125q0 1.859375 0.734375 2.859375q0.734375 0.984375 1.4375 1.046875l0.78125 0.125l1.96875 0l0 0.515625l-3.890625 0zm-5.125 -39.171875q-0.765625 -0.765625 -0.765625 -1.90625q0 -1.15625 0.765625 -1.953125q0.765625 -0.8125 1.921875 -0.8125q1.15625 0 1.953125 0.8125q0.796875 0.796875 0.796875 1.953125q0 1.140625 -0.796875 1.90625q-0.796875 0.765625 -1.953125 0.765625q-1.15625 0 -1.921875 -0.765625zm26.364471 9.921875l0 -1.34375q-2.875 1.15625 -5.25 4.640625q-2.359375 3.484375 -2.484375 6.5625l0 19.390625l-4.484375 0l0 -32.0l4.484375 0l0 10.171875q1.015625 -3.703125 3.890625 -7.0q2.890625 -3.296875 6.53125 -3.421875l0.265625 0q1.28125 0 2.140625 0.859375q0.859375 0.859375 0.859375 2.140625q0 1.28125 -0.859375 2.125q-0.859375 0.828125 -2.140625 0.828125q-1.28125 0 -2.125 -0.828125q-0.828125 -0.84375 -0.828125 -2.125zm17.288467 29.25q-2.625 0 -4.0 -1.140625q-1.375 -1.15625 -1.453125 -2.3125l-0.0625 -1.09375l0 -27.453125l4.484375 0l0 27.453125q0 1.859375 0.734375 2.859375q0.734375 0.984375 1.4375 1.046875l0.78125 0.125l1.96875 0l0 0.515625l-3.890625 0zm-5.125 -39.171875q-0.765625 -0.765625 -0.765625 -1.90625q0 -1.15625 0.765625 -1.953125q0.765625 -0.8125 1.921875 -0.8125q1.15625 0 1.953125 0.8125q0.796875 0.796875 0.796875 1.953125q0 1.140625 -0.796875 1.90625q-0.796875 0.765625 -1.953125 0.765625q-1.15625 0 -1.921875 -0.765625zm32.83322 9.40625q-1.03125 -0.828125 -3.296875 -1.40625q-2.265625 -0.578125 -3.421875 -0.578125q-1.15625 0 -1.34375 0q-3.453125 0.0625 -5.0 1.765625q-1.53125 1.703125 -1.53125 3.8125q0 2.109375 1.34375 3.546875q1.34375 1.4375 3.359375 2.25q2.015625 0.796875 4.34375 1.828125q2.34375 1.015625 4.359375 2.078125q2.015625 1.046875 3.359375 3.0625q1.34375 2.015625 1.34375 5.03125q0 3.0 -2.109375 5.109375q-2.109375 2.109375 -4.703125 2.8125q-2.59375 0.703125 -5.59375 0.703125q-6.53125 0 -9.796875 -2.875l0.375 -0.390625q1.28125 1.21875 3.8125 2.0q2.53125 0.765625 4.890625 0.765625q3.78125 0 6.25 -2.078125q2.46875 -2.09375 2.46875 -5.1875q0 -3.109375 -1.859375 -5.0q-1.859375 -1.890625 -4.515625 -2.9375q-2.65625 -1.0625 -5.34375 -2.109375q-2.6875 -1.0625 -4.546875 -2.953125q-1.859375 -1.890625 -1.859375 -4.375q0 -2.5 1.15625 -4.0625q1.15625 -1.578125 3.078125 -2.21875q3.265625 -1.078125 6.515625 -1.078125q5.515625 0 8.578125 2.046875l-0.3125 0.4375z" fill-rule="nonzero"/><path fill="#8eb8e5" d="m172.02365 173.36856l7.140625 0l-1.328125 25.203125q-0.046875 -3.71875 3.203125 -6.609375q3.265625 -2.90625 7.484375 -2.90625q14.3125 0 14.3125 16.546875q0 18.609375 -18.09375 18.609375q-5.078125 0 -12.71875 -1.875l0 -48.96875zm16.421875 18.84375q-3.375 0 -6.234375 3.0625q-2.84375 3.046875 -3.046875 5.28125l0 19.421875q2.8125 1.078125 5.515625 1.078125q11.015625 0 11.015625 -15.515625q0 -13.328125 -7.25 -13.328125zm26.311188 31.75q-6.4375 0 -8.296875 -3.671875q-0.453125 -0.921875 -0.453125 -1.75l0 -45.171875l7.140625 0l0 44.71875q0 1.421875 0.421875 2.0q0.421875 0.5625 0.65625 0.59375l0.640625 0.109375l3.203125 0l0 3.171875l-3.3125 0zm12.599472 -8.6875q0 4.265625 1.96875 5.28125q0.984375 0.5 2.640625 0.5q3.5 0 6.296875 -2.71875q2.796875 -2.71875 3.0 -4.796875l0 -24.234375l7.140625 0l0 28.78125q0 1.421875 0.421875 2.0q0.421875 0.5625 0.671875 0.59375l0.640625 0.109375l3.203125 0l0 3.171875l-5.234375 0q-3.109375 0 -4.890625 -1.484375q-1.78125 -1.484375 -1.875 -3.21875l-0.078125 -1.125l0.78125 -0.046875q0.5 0.8125 -2.765625 3.46875q-3.25 2.65625 -7.078125 2.65625q-3.828125 0 -6.328125 -0.75q-2.484375 -0.765625 -3.703125 -2.28125q-1.953125 -2.34375 -1.953125 -5.96875l0 -25.90625l7.140625 0l0 25.96875z" fill-rule="nonzero"/><path fill="#000000" fill-opacity="0.0" d="m15.283179 84.61951c26.292343 -11.41156 106.23367 -68.75107 157.75407 -68.46935c51.5204 0.28170967 126.140274 58.46634 151.36833 70.159615" fill-rule="evenodd"/><path stroke="#000000" stroke-width="8.0" stroke-linejoin="round" stroke-linecap="butt" d="m15.283179 84.61951c26.292343 -11.41156 106.23367 -68.75107 157.75407 -68.46935c51.5204 0.28170967 126.140274 58.46634 151.36833 70.159615" fill-rule="evenodd"/><path fill="#000000" fill-opacity="0.0" d="m19.204725 83.33593c25.123178 11.695282 100.79766 69.86846 150.73907 70.17165c49.94142 0.30319214 124.09117 -56.960434 148.90941 -68.352516" fill-rule="evenodd"/><path stroke="#000000" stroke-width="8.0" stroke-linejoin="round" stroke-linecap="butt" d="m19.204725 83.33593c25.123178 11.695282 100.79766 69.86846 150.73907 70.17165c49.94142 0.30319214 124.09117 -56.960434 148.90941 -68.352516" fill-rule="evenodd"/><path fill="#8eb8e5" d="m118.23622 84.11286l0 0c0 -28.397003 22.914566 -51.417324 51.181107 -51.417324l0 0c13.574066 0 26.592178 5.4171677 36.190506 15.059784c9.598312 9.64262 14.990585 22.720814 14.990585 36.35754l0 0c0 28.397003 -22.91455 51.41732 -51.18109 51.41732l0 0c-28.26654 0 -51.181107 -23.020317 -51.181107 -51.41732zm25.304962 0l0 0c0 14.421455 11.585144 26.112358 25.876144 26.112358c14.291 0 25.87613 -11.690903 25.87613 -26.112358c0 -14.421463 -11.585129 -26.112362 -25.87613 -26.112362l0 0c-14.291 0 -25.876144 11.690899 -25.876144 26.112362z" fill-rule="evenodd"/><path fill="#000000" fill-opacity="0.0" d="m144.36275 71.34904l22.560257 -15.861111l29.2417 15.470264l-0.84132385 27.35147l-22.560242 15.861107l-29.2417 -15.470261z" fill-rule="evenodd"/><path stroke="#000000" stroke-width="4.0" stroke-linejoin="round" stroke-linecap="butt" d="m144.36275 71.34904l22.560257 -15.861111l29.2417 15.470264l-0.84132385 27.35147l-22.560242 15.861107l-29.2417 -15.470261z" fill-rule="evenodd"/><path fill="#000000" fill-opacity="0.0" d="m166.923 55.487926l-54.04724 -24.22047" fill-rule="evenodd"/><path stroke="#000000" stroke-width="4.0" stroke-linejoin="round" stroke-linecap="butt" d="m166.923 55.487926l-54.04724 -24.22047" fill-rule="evenodd"/><path fill="#000000" fill-opacity="0.0" d="m144.36275 71.34904l-73.889755 43.842514" fill-rule="evenodd"/><path stroke="#000000" stroke-width="4.0" stroke-linejoin="round" stroke-linecap="butt" d="m144.36275 71.34904l-73.889755 43.842514" fill-rule="evenodd"/><path fill="#000000" fill-opacity="0.0" d="m143.52144 98.70051l-1.9842529 49.732277" fill-rule="evenodd"/><path stroke="#000000" stroke-width="4.0" stroke-linejoin="round" stroke-linecap="butt" d="m143.52144 98.70051l-1.9842529 49.732277" fill-rule="evenodd"/><path fill="#000000" fill-opacity="0.0" d="m172.76314 114.17077l46.11023 28.818901" fill-rule="evenodd"/><path stroke="#000000" stroke-width="4.0" stroke-linejoin="round" stroke-linecap="butt" d="m172.76314 114.17077l46.11023 28.818901" fill-rule="evenodd"/><path fill="#000000" fill-opacity="0.0" d="m195.32338 98.30966l74.99214 -44.818893" fill-rule="evenodd"/><path stroke="#000000" stroke-width="4.0" stroke-linejoin="round" stroke-linecap="butt" d="m195.32338 98.30966l74.99214 -44.818893" fill-rule="evenodd"/><path fill="#000000" fill-opacity="0.0" d="m196.1647 70.95819l0.09448242 -50.582672" fill-rule="evenodd"/><path stroke="#000000" stroke-width="4.0" stroke-linejoin="round" stroke-linecap="butt" d="m196.1647 70.95819l0.09448242 -50.582672" fill-rule="evenodd"/></g></svg>